<?xml version="1.0" encoding="UTF-8"?>
<svg width="575px" height="419px" viewBox="0 0 575 419" version="1.1" xmlns="http://www.w3.org/2000/svg" xmlns:xlink="http://www.w3.org/1999/xlink">
    <!-- Generator: Sketch 50 (54983) - http://www.bohemiancoding.com/sketch -->
    <title>logo</title>
    <desc>Created with Sketch.</desc>
    <defs>
        <path d="M17.2440513,129.117519 L18.0472107,129.075427 L129.86772,88.8568614 L18.3049902,124.900205 L16.7660549,125.397399 C16.3280733,123.140397 15.9471165,121.701157 15.6231844,121.079679 C10.3174876,110.900476 4.00959032,109.466085 1.95289805,107.409393 C-0.650966017,104.805529 -0.650966017,103.503597 1.95289805,103.503597 L1.95289805,0 L265.594135,0 L265.594135,150.37315 L1.95289805,150.37315 L17.5760825,132.797068 L17.2440513,129.117519 Z" id="path-1"></path>
    </defs>
    <g id="Welcome" stroke="none" stroke-width="1" fill="none" fill-rule="evenodd">
        <g id="logo-black">
            <g id="logo" transform="translate(-16.000000, -33.000000)">
                <g id="text" font-family="Baskerville" font-weight="normal">
                    <text id="of-traditional-music" font-size="30.3534247" fill="#DBBB5B">
                        <tspan x="206.823597" y="448.690125">of traditional music and culture</tspan>
                    </text>
                    <text id="eekend" font-size="125.749902" fill="#000000">
                        <tspan x="233.648686" y="391.228536">eekend</tspan>
                    </text>
                    <text id="the" font-size="52.0344423" fill="#000000">
                        <tspan x="146.193717" y="89.5901593">the</tspan>
                    </text>
                    <text id="W" font-size="208.137769" fill="#000000">
                        <tspan x="28.2730482" y="447.839253">W</tspan>
                    </text>
                    <text id="Seamus" font-size="225.482583" fill="#000000">
                        <tspan x="213.385007" y="202">S</tspan>
                        <tspan x="335.484707" y="202" font-size="104.068885" letter-spacing="-6.07068489">eamus</tspan>
                        <tspan x="569.876834" y="202" font-size="143.094716"> </tspan>
                    </text>
                    <text id="Grant" font-size="316.542858" letter-spacing="3.902583" fill="#000000">
                        <tspan x="0.477820864" y="301.389284">G</tspan>
                        <tspan x="248.433711" y="301.389284" font-size="160.439531">ran</tspan>
                        <tspan x="479.100682" y="301.389284" font-size="160.439531">t</tspan>
                    </text>
                </g>
                <g id="Group" transform="translate(480.599172, 83.321783) rotate(3.000000) translate(-480.599172, -83.321783) translate(347.599172, 7.821783)">
                    <mask id="mask-2" fill="white">
                        <use xlink:href="#path-1"></use>
                    </mask>
                    <g id="Combined-Shape"></g>
                    <g id="violin-black" mask="url(#mask-2)">
                        <g transform="translate(-546.811455, 25.387675)" id="layer102">
                            <g>
                                <path d="M144.560831,327.452153 C133.023575,326.373128 112.019853,321.930087 106.497748,319.454678 C102.454777,317.550517 93.4813562,314.1865 92.692484,314.1865 C90.4244764,314.1865 71.6887615,303.967505 59.0668063,295.843086 C44.4726705,286.512699 36.4853394,279.784665 33.0340235,273.945239 C32.0479333,272.358439 28.8924445,269.502198 25.6383466,267.344149 C18.9329329,262.96458 16.8621434,259.664035 18.3412787,255.919186 C19.1301509,253.761137 18.9329329,253.316833 15.9746621,250.777952 C8.67759424,244.557694 3.54992492,235.988971 1.38052636,226.595112 C-1.47913538,213.583348 0.493045127,183.434139 4.93045127,173.405559 C7.39567691,167.820022 11.537256,162.234484 17.2565795,157.09325 C22.5814668,152.269377 37.0769936,143.25635 45.2615427,139.701917 C61.4334229,132.59305 90.3258674,125.801544 119.316921,122.183639 C163.8882,116.661573 168.424216,115.646021 173.453276,110.441315 C176.510156,107.267714 176.510156,107.267714 181.736434,107.267714 C188.836284,107.267714 190.019592,108.029378 190.512637,112.78978 C192.2876,129.800281 233.210345,133.545131 275.710835,120.533366 C286.557828,117.232821 298.193693,112.091588 300.658919,109.616179 C305.58937,104.474945 304.997716,99.3971837 299.081174,95.1445584 L295.531249,92.6056776 L299.377001,88.9877724 L303.222753,85.3698672 L312.097566,85.3698672 C323.733431,85.3063952 325.80422,84.608203 346.117679,74.5796238 C371.657417,61.8852198 378.954485,59.0924509 394.436102,55.6649618 C418.792531,50.26984 449.065502,52.8087209 470.56227,62.0121638 C481.014826,66.4552052 502.708812,80.5459937 506.653173,85.4968113 L509.808662,89.3686045 L524.895843,84.9255631 C533.080392,82.5136263 569.171295,71.913799 604.966371,61.4409156 C640.761448,50.9045602 670.146937,42.2723655 670.344155,42.1454215 C670.935809,41.8915334 662.849869,31.9898982 661.272125,31.1647619 C660.483253,30.7204578 660.088817,29.9587936 660.384644,29.4510174 C660.77908,28.7528252 659.891599,28.5624091 656.243065,28.5624091 C652.298704,28.5624091 651.115395,28.245049 648.157125,26.3408884 C644.705809,24.1193677 644.6072,23.9924237 645.198854,20.3110465 C645.889117,15.4871729 649.044606,11.2345476 653.186185,9.52080304 C661.272125,6.34720203 674.88017,9.52080304 678.331486,15.3602289 C679.218968,16.8200854 678.923141,17.6452216 676.457915,20.5649346 C674.88017,22.5325672 673.992689,24.2463117 674.584343,24.4367278 C675.077389,24.6906159 675.471825,25.2618641 675.471825,25.7696402 C675.471825,26.6582485 683.261938,38.0832122 683.853592,38.0832122 C684.149419,38.0832122 699.631036,33.5132267 699.926863,33.3228106 C700.124081,33.1958666 697.954682,30.2761537 695.292239,26.7217205 C692.531186,23.2307594 690.263178,19.9302144 690.263178,19.4224382 C690.263178,18.914662 689.277088,18.4068859 688.09378,18.2799418 C686.121599,18.0895258 685.727163,17.5817496 685.234118,14.5985647 C684.839682,12.503988 683.360547,9.52080304 681.388366,7.23581031 C678.824531,3.99873728 678.430095,3.11012899 679.317577,1.96763263 C680.599494,0.507776162 683.754983,-0.190416061 687.797953,0.126944041 C689.967351,0.253888081 690.657615,0.825136263 692.235359,3.80832122 C693.517276,6.28373001 695.292239,7.99747455 698.349119,9.77469112 C700.715735,11.1076035 702.589307,12.6944041 702.589307,13.2656522 C702.687916,14.8524527 713.732127,29.3240734 714.718217,29.0701853 C715.211262,29.0067133 718.859796,28.054633 723.001375,27.0390806 C728.424871,25.6426962 730.791488,24.6906159 731.974796,23.3577035 C732.862277,22.3421511 734.834458,21.0727107 736.412202,20.5014625 C738.976037,19.5493822 739.271864,19.1685501 738.877428,16.8835574 C738.285774,13.7734284 741.046827,11.1076035 746.075887,9.77469112 C751.104947,8.44177869 753.274346,8.69566678 756.92288,11.0441315 C759.88115,12.9482921 760.670023,13.2021802 764.219948,12.8848201 C767.474045,12.56746 768.657354,12.8213481 770.530925,13.9003724 C772.503106,15.1063408 773.291978,15.2332849 774.869722,14.6620367 C782.758444,11.9327398 788.872204,16.5027253 788.872204,25.198392 C788.872204,27.8642169 788.477768,28.6258811 786.900023,29.1971293 C785.618106,29.6414335 784.927843,30.5300417 784.927843,31.6725381 C784.927843,33.0054505 783.941753,34.0210029 781.772354,35.2269712 C779.10991,36.6868277 778.616865,37.3215479 778.912692,39.2891805 C779.10991,41.0029251 778.518256,41.9550054 776.841903,42.9705577 C771.517015,46.2076307 763.628293,46.6519349 760.078368,43.922638 L757.810361,42.1454215 L753.866,43.6052779 C751.696601,44.3669422 748.343894,45.0651344 746.470323,45.0651344 C744.596751,45.0651344 742.032917,45.4459665 740.750999,45.8902706 L738.581601,46.7154069 L742.72318,52.0470566 C745.089797,54.9667695 747.357804,57.8864825 747.949458,58.5212027 C748.541113,59.2828669 750.020248,59.663699 752.386865,59.663699 C757.218707,59.663699 760.472805,60.9331394 762.444985,63.4720203 C764.811602,66.4552052 764.614384,68.867142 761.853331,72.6754632 C759.092278,76.5472564 756.627053,78.0071129 751.79521,78.7053051 C744.399533,79.7843295 730.59427,75.341288 729.410962,71.4694948 C729.115134,70.7078306 728.917916,71.0886627 728.819307,72.3581031 C728.622089,75.4047601 730.199834,78.451417 733.256714,81.307658 C736.510811,84.2908429 736.017766,85.6872273 731.383142,87.2740279 C726.649909,88.9243004 725.170773,88.3530522 721.325021,83.2752906 C719.747277,81.1807139 716.690397,78.324473 714.718217,76.9915606 C711.759946,75.0239279 711.266901,74.3892077 712.055773,73.4371274 C712.746036,72.6119912 712.746036,72.040743 711.957164,71.4060228 C711.36551,70.9617186 709.097502,68.2324218 707.026713,65.3761809 C703.27957,60.4888353 702.983743,60.2984192 700.912953,60.9966115 C693.911712,63.3450762 542.941294,115.963381 538.701106,117.486709 L533.672046,119.39087 L535.545617,122.881831 C536.630317,124.849464 538.701106,129.482921 540.180242,133.164299 C542.448249,139.130668 542.744076,141.161773 542.744076,150.111328 C542.744076,158.616579 542.448249,161.155459 540.574678,165.661973 C537.419189,173.278615 529.826294,182.926362 523.12088,187.750236 C512.471105,195.557294 504.385165,199.238672 486.438323,204.379905 C473.224713,208.188226 466.617909,209.521139 449.755765,211.996548 C442.557306,213.0121 434.569975,214.471956 432.10475,215.170149 C425.793772,217.010837 419.877231,220.24791 415.735651,224.373592 L412.087118,227.864553 L405.283095,227.864553 L398.479072,227.864553 L394.929147,224.056232 C390.393132,219.29583 383.589109,214.725845 380.039184,214.154596 C375.798996,213.456404 367.220011,214.852789 358.345199,217.645557 C348.484296,220.819158 330.340235,229.197465 320.77516,235.036891 C299.179783,248.239071 296.024295,262.266388 313.182265,268.867478 C314.957227,269.502198 314.858618,269.756086 311.407303,273.056631 C307.955987,276.420648 307.758769,276.547592 303.025535,276.611064 C292.277152,276.864952 281.134332,280.86369 271.273429,288.036028 C263.976361,293.367678 240.408804,307.26805 229.759029,312.5997 C217.038465,318.946902 194.161171,325.16716 175.721283,327.198264 C166.747862,328.213817 153.83008,328.340761 144.560831,327.452153 Z M732.763668,64.3606285 C734.440022,63.1546602 734.538631,62.9642441 733.256714,62.646884 C732.369232,62.3929959 731.678969,61.5043876 731.678969,60.6157793 C731.678969,58.2673146 725.959646,51.2853924 724.48051,51.7931685 C723.790247,52.0470566 721.620849,52.9356649 719.648668,53.7608012 L715.901525,55.2206576 L721.127803,62.0756358 C723.888856,65.820485 726.748518,69.057558 727.241563,69.3114461 C727.833217,69.5653342 728.819307,68.930614 729.509571,67.7246456 C730.298443,66.6456213 731.777578,65.0588208 732.763668,64.3606285 Z" id="Shape" fill="#000000" fill-rule="nonzero"></path>
                            </g>
                        </g>
                    </g>
                </g>
            </g>
        </g>
    </g>
</svg>